<svg viewBox="0 0 280 280" xmlns="http://www.w3.org/2000/svg">
  <!-- Background -->
  <rect width="280" height="280" fill="#f5f5f5"/>
  
  <!-- Decorative Beach Elements -->
  <path d="M0,280 L280,280 L280,230 C220,250 180,220 140,240 C100,260 60,230 0,250 Z" fill="#fffde7" opacity="0.6"/>
  <path d="M0,280 L280,280 L280,240 C220,260 180,230 140,250 C100,270 60,240 0,260 Z" fill="#fff9c4" opacity="0.8"/>
  
  <!-- Beach Bag -->
  <path d="M80,140 L200,140 L190,200 L90,200 Z" fill="#ffe0b2"/>
  <path d="M80,140 L200,140 L190,150 L90,150 Z" fill="#ffcc80"/>
  <path d="M100,140 C100,120 120,110 140,110 C160,110 180,120 180,140" stroke="#ffcc80" stroke-width="3" fill="none"/>
  
  <!-- Straw Hat -->
  <ellipse cx="140" cy="80" rx="60" ry="20" fill="#f9e8c7"/>
  <ellipse cx="140" cy="80" rx="35" ry="12" fill="#f5f0e3"/>
  <path d="M110,75 C125,70 155,70 170,75" stroke="#f5d7a3" stroke-width="2" fill="none"/>
  
  <!-- Sunglasses -->
  <rect x="125" y="170" width="30" height="10" rx="5" fill="#333333"/>
  <circle cx="118" cy="175" r="12" fill="#333333"/>
  <circle cx="162" cy="175" r="12" fill="#333333"/>
  <circle cx="118" cy="175" r="8" fill="#2196f3" opacity="0.5"/>
  <circle cx="162" cy="175" r="8" fill="#2196f3" opacity="0.5"/>
  
  <!-- Scarf/Wrap -->
  <path d="M75,110 C90,105 110,115 120,105 C130,95 150,95 160,105 C170,115 190,105 205,110" stroke="#e91e63" stroke-width="10" fill="none" opacity="0.5" stroke-linecap="round"/>
  
  <!-- Shell Necklace -->
  <ellipse cx="150" cy="130" rx="15" ry="5" transform="rotate(-20,150,130)" fill="#eeeeee"/>
  <circle cx="155" cy="135" r="3" fill="#ffffff"/>
  <circle cx="160" cy="138" r="2" fill="#ffffff"/>
  <circle cx="145" cy="132" r="3" fill="#ffffff"/>
  <circle cx="140" cy="134" r="2" fill="#ffffff"/>
  
  <!-- Title -->
  <rect x="40" y="230" width="200" height="40" rx="5" fill="#ffffff" opacity="0.8"/>
  <text x="140" y="255" font-family="Arial, sans-serif" font-size="22" font-weight="bold" text-anchor="middle" fill="#333333">Accessories</text>
</svg>
